<svg xmlns="http://www.w3.org/2000/svg" viewBox="0 0 318.6 318.6">
  <style>.a{fill:#e4761b;stroke:#e4761b;stroke-linecap:round;stroke-linejoin:round}.b{fill:#d7c1b3;stroke:#d7c1b3;stroke-linecap:round;stroke-linejoin:round}.c{fill:#233447;stroke:#233447;stroke-linecap:round;stroke-linejoin:round}.d{fill:#cd6116;stroke:#cd6116;stroke-linecap:round;stroke-linejoin:round}.e{fill:#e4751f;stroke:#e4751f;stroke-linecap:round;stroke-linejoin:round}.f{fill:#f6851b;stroke:#f6851b;stroke-linecap:round;stroke-linejoin:round}.g{fill:#c0ad9e;stroke:#c0ad9e;stroke-linecap:round;stroke-linejoin:round}.h{fill:#161616;stroke:#161616;stroke-linecap:round;stroke-linejoin:round}.i{fill:#763e1a;stroke:#763e1a;stroke-linecap:round;stroke-linejoin:round}</style>
  <polygon points="274.1 35.5 174.6 109.4 193 65.8" fill="#e2761b" stroke="#e2761b" stroke-linecap="round" stroke-linejoin="round"/>
  <polygon class="a" points="44.4 35.5 143.1 110.1 125.6 65.8"/>
  <polygon class="a" points="238.3 206.8 211.8 247.4 268.5 263 284.8 207.7"/>
  <polygon class="a" points="33.9 207.7 50.1 263 106.8 247.4 80.3 206.8"/>
  <polygon class="a" points="103.6 138.2 87.8 162.1 144.1 164.6 142.1 104.1"/>
  <polygon class="a" points="214.9 138.2 175.9 103.4 174.6 164.6 230.8 162.1"/>
  <polygon class="a" points="106.8 247.4 140.6 230.9 111.4 208.1"/>
  <polygon class="a" points="177.9 230.9 211.8 247.4 207.1 208.1"/>
  <polygon class="b" points="211.8 247.4 177.9 230.9 180.6 253 180.3 262.3"/>
  <polygon class="b" points="106.8 247.4 138.3 262.3 138.1 253 140.6 230.9"/>
  <polygon class="c" points="138.8 193.5 110.6 185.2 130.5 176.1"/>
  <polygon class="c" points="179.7 193.5 188 176.1 208 185.2"/>
  <polygon class="d" points="106.8 247.4 111.6 206.8 80.3 207.7"/>
  <polygon class="d" points="207 206.8 211.8 247.4 238.3 207.7"/>
  <polygon class="d" points="230.8 162.1 174.6 164.6 179.8 193.5 188.1 176.1 208.1 185.2"/>
  <polygon class="d" points="110.6 185.2 130.6 176.1 138.8 193.5 144.1 164.6 87.8 162.1"/>
  <polygon class="e" points="87.8 162.1 111.4 208.1 110.6 185.2"/>
  <polygon class="e" points="208.1 185.2 207.1 208.1 230.8 162.1"/>
  <polygon class="e" points="144.1 164.6 138.8 193.5 145.4 227.6 146.9 182.7"/>
  <polygon class="e" points="174.6 164.6 171.9 182.6 173.1 227.6 179.8 193.5"/>
  <polygon class="f" points="179.8 193.5 173.1 227.6 177.9 230.9 207.1 208.1 208.1 185.2"/>
  <polygon class="f" points="110.6 185.2 111.4 208.1 140.6 230.9 145.4 227.6 138.8 193.5"/>
  <polygon class="g" points="180.3 262.3 180.6 253 178.1 250.8 140.6 250.8 138.3 253 138.5 262.3 106.8 247.4 117.9 256.5 140.4 272.1 178.2 272.1 200.8 256.5 211.8 247.4"/>
  <polygon class="h" points="177.9 230.9 173.1 227.6 145.4 227.6 140.6 230.9 138.1 253 140.6 250.8 178.1 250.8 180.6 253"/>
  <polygon class="i" points="278.3 114.2 286.8 73.4 274.1 35.5 177.9 106.9 214.9 138.2 267.2 153.5 278.8 140 273.8 136.4 281.8 129.1 275.6 124.3 283.6 118.2"/>
  <polygon class="i" points="31.8 73.4 40.3 114.2 34.9 118.2 42.9 124.3 36.8 129.1 44.8 136.4 39.8 140 51.3 153.5 103.6 138.2 140.6 106.9 44.4 35.5"/>
  <polygon class="f" points="267.2 153.5 214.9 138.2 230.8 162.1 207.1 208.1 238.3 207.7 284.8 207.7"/>
  <polygon class="f" points="103.6 138.2 51.3 153.5 33.9 207.7 80.3 207.7 111.4 208.1 87.8 162.1"/>
  <polygon class="f" points="174.6 164.6 177.9 106.9 193.1 65.8 125.6 65.8 140.6 106.9 144.1 164.6 145.3 182.8 145.4 227.6 173.1 227.6 173.3 182.8"/>
</svg>
